<?xml version="1.0" encoding="UTF-8"?>
<!-- Generator: visioncortex VTracer 0.6.0 -->
<svg version="1.1" xmlns="http://www.w3.org/2000/svg" width="130" height="176">
<path d="M0 0 C2.2917260912 1.7667124776 4.4621118656 3.6357164451 6.6484375 5.53125 C8.8148329771 7.2671572293 11.0106166204 8.9636472013 13.2109375 10.65625 C13.7668457031 11.0869580078 14.3227539062 11.5176660156 14.8955078125 11.9614257812 C18.5439083872 14.7631465545 22.2586860568 17.3085348896 26.2578125 19.59375 C27.6484375 20.53125 27.6484375 20.53125 28.6484375 22.53125 C28.4700127614 31.0039606543 26.8450858681 39.4944833242 25.4609375 47.84375 C25.2986213684 48.8322544861 25.2986213684 48.8322544861 25.133026123 49.8407287598 C23.7595715933 58.1194586266 22.1019391644 66.1639849036 19.7109375 74.21875 C13.2031012186 96.4377001019 10.3469036605 119.7330061176 8.4973144531 142.7553710938 C8.418837738 143.72353508 8.418837738 143.72353508 8.3387756348 144.7112579346 C8.2008308164 146.4477658106 8.0711800125 148.1849269495 7.9421386719 149.9221191406 C7.6484375 152.53125 7.6484375 152.53125 6.6484375 154.53125 C-2.5650209164 157.7332307434 -14.3264204785 156.6994174377 -24.009765625 156.9199523926 C-36.1656416564 157.2035256561 -48.2362773723 157.7504300929 -60.3466796875 158.8708496094 C-75.8350632141 160.289499643 -75.8350632141 160.289499643 -79.3515625 158.53125 C-79.4110205078 157.8237158203 -79.4704785156 157.1161816406 -79.5317382812 156.3872070312 C-81.1359321975 137.6420681759 -83.1732760205 118.9608420281 -85.4140625 100.28125 C-85.5437139893 99.1933013916 -85.6733654785 98.1053527832 -85.8069458008 96.9844360352 C-87.6089153853 81.8730828799 -87.6089153853 81.8730828799 -89.9694824219 66.8422851562 C-90.5196292147 63.5146880058 -90.8068997503 60.2099829901 -90.9765625 56.84375 C-91.0145092773 56.1638500977 -91.0524560547 55.4839501953 -91.0915527344 54.7834472656 C-91.610264822 44.0457541866 -91.4357716858 33.2776376288 -91.3515625 22.53125 C-89.936171875 21.7307421875 -89.936171875 21.7307421875 -88.4921875 20.9140625 C-81.9140857603 17.1211900122 -75.7139635797 13.2770629776 -69.9765625 8.28125 C-52.4287173088 -6.9431063612 -20.7744694835 -12.9754161558 0 0 Z " fill="#000000" transform="translate(96.3515625,11.46875)"/>
</svg>
