<?xml version="1.0" encoding="UTF-8"?>
<!-- Generator: visioncortex VTracer 0.6.0 -->
<svg version="1.1" xmlns="http://www.w3.org/2000/svg" width="180" height="208">
<path d="M0 0 C7.0292763512 0.5858521557 13.8894878616 1.5967582684 20.8125 2.9375 C21.7270898437 3.1070117187 22.6416796875 3.2765234375 23.583984375 3.451171875 C27.9201694929 4.2805658285 31.9724263289 5.1170881999 36 7 C37.3881751575 11.7013617732 38.5735615865 16.3888395831 39.5859375 21.18359375 C39.8796940597 22.5372210821 40.1739813177 23.8907333343 40.46875 25.244140625 C40.9234518572 27.3405219786 41.3749715468 29.4373650044 41.8173828125 31.5363769531 C43.9012057848 43.9746692837 43.9012057848 43.9746692837 50.4350585938 54.2844238281 C53.123616716 56.1580258768 56.0703466472 57.5478011398 59 59 C59.1095703125 59.87140625 59.219140625 60.7428125 59.33203125 61.640625 C60.0916648254 67.4325237172 60.9287469166 73.0961463401 62.4375 78.75 C63.752643251 83.7015143401 64.644057866 88.6333969951 65.4375 93.6875 C66.381525184 99.6801442321 67.5384587215 105.5499118929 69 111.4375 C71.0659496484 119.8227674206 72.4400381101 128.2608131252 73.6796875 136.8032226562 C73.974100946 138.822378287 74.2813371215 140.8390335998 74.59375 142.85546875 C75.4605553104 148.5463014679 76.1210965525 154.1951529244 76.5 159.9375 C76.7267877339 163.3516862479 76.9773332045 166.4395881925 78.0625 169.6875 C79.3166525459 174.1188389956 79.377463427 178.4177695603 79 183 C78 184 78 184 76.3059539795 184.182723999 C75.5690785217 184.2100007629 74.832203064 184.2372775269 74.0729980469 184.2653808594 C72.8185413361 184.3156467438 72.8185413361 184.3156467438 71.5387420654 184.3669281006 C70.6223243713 184.3992402649 69.7059066772 184.4315524292 68.76171875 184.46484375 C66.8053370473 184.5435826719 64.8489568942 184.6223601005 62.892578125 184.701171875 C59.8217611355 184.8191218611 56.7508820544 184.9351384152 53.6799316406 185.0495605469 C29.5643949498 185.7345852134 29.5643949498 185.7345852134 5.82421875 189.62109375 C-2.1839603468 191.48681537 -10.0071308068 191.2622857876 -18.1875 191.0625 C-30.8311742209 190.7612407048 -30.8311742209 190.7612407048 -43.3342285156 192.4543457031 C-48.4609401009 193.5037275506 -53.6786870551 193.9751177353 -58.875 194.5625 C-61.0601057203 194.8119705009 -63.2450107721 195.0632064593 -65.4296875 195.31640625 C-66.3808544922 195.4241235352 -67.3320214844 195.5318408203 -68.3120117188 195.6428222656 C-70.9065522835 195.9875827421 -73.4393044936 196.4624483714 -76 197 C-77.3512523429 197.2264668731 -78.7054790426 197.436150165 -80.0625 197.625 C-81.0389648437 197.7680859375 -81.0389648437 197.7680859375 -82.03515625 197.9140625 C-84.2090615421 198.0091438448 -85.923900221 197.6195932525 -88 197 C-89.5391980778 189.079854551 -90.261861004 181.2437281317 -90.625 173.1875 C-90.6648803711 172.3243115234 -90.7047607422 171.4611230469 -90.7458496094 170.5717773438 C-91.4138720378 153.8017916692 -90.771682048 137.0731517962 -90.125 120.3125 C-90.0803438959 119.1325408703 -90.0357683368 117.9525786897 -89.9912719727 116.7726135254 C-89.3238901338 99.1563410177 -88.4651187228 81.5696471925 -87 64 C-85.4924316406 63.2838541667 -83.9848632812 62.5677083333 -82.4772949219 61.8515625 C-79.9014008969 60.3667305121 -79.1858727318 58.7105662441 -78 56 C-74.7359582752 46.4973360828 -73.8545895429 36.7461454299 -72.8125 26.8125 C-72.6342726733 25.1763439501 -72.4552420608 23.5402751941 -72.275390625 21.904296875 C-71.8410033082 17.9371424071 -71.4174673047 13.9689691425 -71 10 C-67.5865168157 9.0382280487 -64.1726005673 8.0780097118 -60.7583007812 7.119140625 C-59.6003073327 6.7937061985 -58.4424266987 6.4678700347 -57.2846679688 6.1416015625 C-53.5263073693 5.082633926 -49.7649643687 4.035242324 -46 3 C-45.177578125 2.7736083984 -44.35515625 2.5472167969 -43.5078125 2.3139648438 C-39.6251451592 1.2872979988 -36.8948976894 0.7828444721 -33 2 C-33 2.66 -33 3.32 -33 4 C-28.22049727 5.2095068133 -23.5230578843 5.2196714682 -18.625 5.25 C-17.3875 5.2809375 -17.3875 5.2809375 -16.125 5.3125 C-10.634343411 5.3473613117 -6.8637207442 4.5889572954 -2 2 C-1.34 1.34 -0.68 0.68 0 0 Z " fill="#000000" transform="translate(96,5)"/>
</svg>
