<?xml version="1.0" encoding="UTF-8"?>
<!-- Generator: visioncortex VTracer 0.6.0 -->
<svg version="1.1" xmlns="http://www.w3.org/2000/svg" width="146" height="35">
<path d="M0 0 C16.7676960475 -0.0233456219 33.5353888035 -0.0409873696 50.3030977249 -0.0518121719 C58.0883825207 -0.0569715847 65.8736572266 -0.0640075545 73.6589355469 -0.0754394531 C80.4434515315 -0.085397096 87.2279602099 -0.0918560119 94.0124832988 -0.0940884948 C97.6058433248 -0.095393758 101.1991824463 -0.0984680225 104.7925357819 -0.1057300568 C108.1733285736 -0.1125072876 111.5540918077 -0.1146134727 114.9348907471 -0.1131076813 C116.1769139404 -0.1133832402 117.4189381018 -0.1153782877 118.6609554291 -0.1192054749 C120.354595576 -0.1241691853 122.0482515103 -0.1223913576 123.741897583 -0.1202545166 C124.6904225636 -0.1211763096 125.6389475441 -0.1220981026 126.6162157059 -0.1230478287 C129 0 129 0 132 1 C134.5584404762 6.1168809523 134.0542332911 12.7349706677 134.02734375 18.3203125 C134.0233959961 19.3878173828 134.0194482422 20.4553222656 134.0153808594 21.5551757812 C134.0103051758 22.3619677734 134.0052294922 23.1687597656 134 24 C95.0334826456 25.5495939212 55.983610949 25.4313207867 17 24.5625 C16.0736474609 24.5429425049 15.1472949219 24.5233850098 14.1928710938 24.5032348633 C11.6283837068 24.4470862083 9.0642213824 24.3835133923 6.5 24.31640625 C5.7456567383 24.2996836853 4.9913134766 24.2829611206 4.2141113281 24.2657318115 C2.4745679181 24.2146666469 0.7366220957 24.1129717808 -1 24 C-1.33 23.67 -1.66 23.34 -2 23 C-2.1280196272 20.4455618569 -2.1852227641 17.9300587131 -2.1875 15.375 C-2.1997460937 14.6750390625 -2.2119921875 13.975078125 -2.224609375 13.25390625 C-2.2265429687 12.5591015625 -2.2284765625 11.864296875 -2.23046875 11.1484375 C-2.2345776367 10.5211474609 -2.2386865234 9.8938574219 -2.2429199219 9.2475585938 C-2.0165907865 7.1535022916 -1.5754368008 5.3743189666 -0.9848175049 3.3595275879 C-0.8013844776 2.7301207924 -0.6179514503 2.1007139969 -0.4289598465 1.4522342682 C-0.2874030972 0.9729969597 -0.1458463478 0.4937596512 0 0 Z " fill="#000000" transform="translate(7,5)"/>
</svg>
