<?xml version="1.0" encoding="UTF-8"?>
<!-- Generator: visioncortex VTracer 0.6.0 -->
<svg version="1.1" xmlns="http://www.w3.org/2000/svg" width="25" height="26">
<path d="M0 0 C3.0121216385 0.9167326726 3.9990696263 1.4269383687 5.875 3.875 C6.16796875 6.13671875 6.16796875 6.13671875 6.0625 8.5625 C6.0354296875 9.3707421875 6.008359375 10.178984375 5.98046875 11.01171875 C5.9456640625 11.6266015625 5.910859375 12.241484375 5.875 12.875 C3.6267600794 14.5782120611 1.8791502781 15.8874481439 -1.015625 15.8515625 C-2.7302933572 15.5936652268 -4.4300228823 15.2405832999 -6.125 14.875 C-7.8282120611 12.6267600794 -9.1374481439 10.8791502781 -9.1015625 7.984375 C-8.8436652268 6.2697066428 -8.4905832999 4.5699771177 -8.125 2.875 C-5.1947862149 0.7204310404 -3.6900327937 -0.1476013117 0 0 Z " fill="#000000" transform="translate(14.125,5.125)"/>
</svg>
