<svg width="118" height="66" viewBox="0 0 118 66" fill="none" xmlns="http://www.w3.org/2000/svg">
<path d="M117.991 23.3152C118.003 23.224 118.003 23.1319 117.991 23.0408C118.002 22.9666 118.002 22.8908 117.991 22.8164L117.117 16.4081C116.991 15.6414 116.653 14.9248 116.143 14.3384L115.993 14.1639L115.718 13.8896L100.585 0.873364L101.01 1.2973C100.662 0.882366 100.226 0.550478 99.7337 0.326078C99.2411 0.101677 98.7042 -0.00953292 98.1629 0.000651324H93.5679C92.8207 -0.0141307 92.0906 0.223076 91.4952 0.673914C90.87 0.225791 90.1172 -0.0102017 89.3476 0.000651324H84.7527C84.15 -0.00911163 83.5556 0.140231 83.0294 0.433602C82.5031 0.726973 82.0639 1.15396 81.7561 1.67131C81.2815 2.41023 81.1032 3.30052 81.2566 4.16484L81.831 8.20434C81.4505 7.98896 81.0198 7.8772 80.5823 7.88022H58.3321C57.5338 7.88522 56.7539 8.11886 56.0846 8.55344C55.4374 8.95795 54.9178 9.53717 54.5863 10.2241L52.8632 8.75293C52.185 8.12636 51.2898 7.78675 50.366 7.8054H15.4548C14.6537 7.81997 13.8704 8.04345 13.1824 8.45371C12.2413 9.00376 11.5516 9.89812 11.2595 10.9472L0.171887 47.9762C-0.0352824 48.5863 -0.0556621 49.2443 0.113358 49.8661C0.282377 50.4878 0.633142 51.0453 1.12084 51.4672C1.24792 51.5747 1.38135 51.6746 1.5204 51.7663C1.5204 51.7663 1.29562 51.6166 1.17076 51.4921L16.304 64.5332C16.9441 65.1217 17.7811 65.4506 18.6512 65.4557H53.8372C54.6407 65.4349 55.4246 65.2027 56.1096 64.7825C56.4971 64.5711 56.8437 64.2924 57.1334 63.9596L57.2583 63.785L57.4581 63.5358L57.6079 63.2614L59.2561 64.6828C59.8871 65.2479 60.7059 65.5588 61.5535 65.5555H96.8142C97.6169 65.5288 98.3994 65.2971 99.0867 64.8823C99.4654 64.6579 99.8101 64.3808 100.111 64.0594L100.235 63.8848L100.435 63.6356C100.541 63.4777 100.633 63.3109 100.71 63.1367C100.791 62.9856 100.858 62.827 100.91 62.6631L111.023 28.8508V28.5516C111.036 28.4355 111.036 28.3185 111.023 28.2025V27.9781C111.036 27.9037 111.036 27.828 111.023 27.7536C111.035 27.5959 111.035 27.4376 111.023 27.2798H114.27C114.552 27.3057 114.836 27.3057 115.119 27.2798H115.344C115.526 27.2254 115.702 27.15 115.868 27.0554H116.118L116.567 26.7063L116.767 26.5567L117.117 26.1078V25.9584L117.366 25.5344C117.352 25.4519 117.352 25.3675 117.366 25.2851C117.353 25.2446 117.353 25.2009 117.366 25.1604C117.419 25.0142 117.461 24.8641 117.491 24.7115C117.48 24.6623 117.48 24.611 117.491 24.5619C117.479 24.4876 117.479 24.4117 117.491 24.3375C117.491 24.3375 117.991 23.365 117.991 23.3152Z" fill="#E5322D"/>
<path d="M51.3899 10.6481C51.5225 10.7678 51.6151 10.9252 51.6552 11.0991C51.6955 11.2729 51.6813 11.4549 51.6147 11.6205L40.5521 48.6245C40.4128 49.0285 40.1278 49.3663 39.753 49.5721C39.448 49.7758 39.095 49.8961 38.729 49.9212H3.56823C3.26795 49.9068 2.98347 49.7825 2.76911 49.5721C2.64158 49.4543 2.55208 49.3012 2.51205 49.1326C2.47201 48.9638 2.48328 48.7869 2.54436 48.6245L13.632 11.6205C13.7598 11.2114 14.0358 10.8646 14.4061 10.6481C14.7162 10.459 15.0675 10.3477 15.43 10.3239H50.5908C50.8887 10.3268 51.1744 10.4427 51.3899 10.6481ZM33.0353 41.1689L39.653 19.0762H21.1237L14.531 41.1689H33.0353ZM84.9525 11.0221C85.0725 11.1613 85.2225 11.2717 85.3911 11.3451C85.5597 11.4185 85.7426 11.453 85.9265 11.446H90.4964C90.6704 11.4477 90.8419 11.4051 90.9949 11.3222C91.1479 11.2393 91.277 11.1188 91.3704 10.9722C91.4515 10.8577 91.5089 10.728 91.5389 10.591C91.5689 10.4539 91.571 10.3122 91.5451 10.1743L90.6462 3.59138C90.5606 3.28671 90.4069 3.00538 90.1968 2.76851C90.0767 2.6293 89.9269 2.5189 89.7582 2.44551C89.5896 2.37213 89.4065 2.33764 89.2228 2.34461H84.6529C84.4789 2.34292 84.3073 2.38553 84.1544 2.46843C84.0015 2.55132 83.8722 2.67176 83.7789 2.81839C83.604 3.16748 83.5292 3.39189 83.604 3.59138L84.5281 10.1743C84.5754 10.4948 84.7242 10.7918 84.9525 11.0221ZM99.4614 3.5415C99.3757 3.23682 99.222 2.95549 99.0119 2.71864C98.897 2.57994 98.7515 2.46957 98.5869 2.39605C98.4224 2.32255 98.2431 2.28787 98.063 2.29474H93.468C93.2969 2.28987 93.1276 2.33133 92.9782 2.41474C92.8287 2.49814 92.7046 2.6204 92.6191 2.76851C92.4529 2.98972 92.381 3.2676 92.4193 3.5415L93.3431 10.1244C93.4012 10.4416 93.5483 10.7357 93.7678 10.9722C93.8899 11.1087 94.0402 11.2172 94.2083 11.2904C94.3765 11.3636 94.5582 11.3996 94.7416 11.3961H99.3366C99.5073 11.3984 99.6755 11.3558 99.8245 11.2726C99.9736 11.1895 100.098 11.0687 100.186 10.9224C100.273 10.8108 100.333 10.6812 100.363 10.5431C100.394 10.4051 100.393 10.262 100.36 10.1244L99.4614 3.5415ZM80.932 13.5156L80.4825 10.274H58.3322C57.9845 10.2932 57.648 10.4051 57.3582 10.5982C57.1743 10.6983 57.0142 10.8371 56.8892 11.005C56.7643 11.1729 56.6773 11.3659 56.6342 11.5707L54.7862 17.7546C54.7124 17.9091 54.6872 18.0825 54.7139 18.2516C54.7408 18.4208 54.8181 18.5778 54.936 18.7022C55.1465 18.8998 55.4214 19.015 55.7102 19.0263H82.6302L76.0126 41.1191H49.1674C48.8213 41.1269 48.4841 41.2305 48.1936 41.4182C47.8404 41.6422 47.5824 41.9885 47.4693 42.3907L45.5964 48.5747C45.5353 48.7333 45.5192 48.9057 45.55 49.0729C45.581 49.2402 45.6574 49.3956 45.7711 49.5221C45.9752 49.7331 46.2521 49.8579 46.5453 49.8712H81.806C82.1707 49.8399 82.5222 49.7201 82.8298 49.5221C83.1986 49.3153 83.4752 48.9769 83.604 48.5747L93.7427 14.7624H82.3305C82.1494 14.7659 81.9696 14.7324 81.8021 14.6638C81.6346 14.5951 81.483 14.4929 81.3566 14.3634C81.1501 14.1373 81.0041 13.8629 80.932 13.5655V13.5156Z" fill="white"/>
</svg>
