<svg width="15" height="15" viewBox="0 0 15 15" fill="none" xmlns="http://www.w3.org/2000/svg">
<g id="Group 11">
<circle id="Ellipse 7" cx="7.5" cy="7.5" r="7.2" stroke="#E5322D" stroke-width="0.6"/>
<path id="Vector" d="M5.60794 7.67216L8.53896 10.1975C8.58787 10.2396 8.65285 10.2632 8.72041 10.2632C8.78798 10.2632 8.85295 10.2396 8.90186 10.1975L8.90501 10.1946C8.92881 10.1742 8.94775 10.1496 8.96069 10.1223C8.97364 10.0951 8.98031 10.0657 8.98031 10.036C8.98031 10.0064 8.97364 9.97699 8.96069 9.94972C8.94775 9.92246 8.92881 9.89786 8.90501 9.87742L6.14492 7.49953L8.90501 5.12259C8.9288 5.10215 8.94775 5.07755 8.96069 5.05028C8.97364 5.02302 8.98031 4.99365 8.98031 4.96398C8.98031 4.93431 8.97364 4.90494 8.96069 4.87768C8.94775 4.85041 8.9288 4.82581 8.90501 4.80537L8.90186 4.80252C8.85295 4.76036 8.78798 4.73684 8.72041 4.73684C8.65284 4.73684 8.58787 4.76036 8.53896 4.80252L5.60794 7.32784C5.58216 7.35005 5.56164 7.37676 5.54762 7.40636C5.5336 7.43595 5.52637 7.46781 5.52637 7.5C5.52637 7.5322 5.5336 7.56406 5.54762 7.59365C5.56164 7.62324 5.58216 7.64995 5.60794 7.67216Z" fill="#E5322D"/>
</g>
</svg>
