<svg width="15" height="15" viewBox="0 0 15 15" fill="none" xmlns="http://www.w3.org/2000/svg">
<g id="Group 12">
<circle id="Ellipse 7" cx="7.5" cy="7.5" r="7.2" transform="matrix(-1 0 0 1 15 0)" stroke="#E5322D" stroke-width="0.6"/>
<path id="Vector" d="M9.39206 7.67216L6.46104 10.1975C6.41213 10.2396 6.34715 10.2632 6.27959 10.2632C6.21202 10.2632 6.14705 10.2396 6.09814 10.1975L6.09499 10.1946C6.07119 10.1742 6.05225 10.1496 6.03931 10.1223C6.02636 10.0951 6.01969 10.0657 6.01969 10.036C6.01969 10.0064 6.02636 9.97699 6.03931 9.94972C6.05225 9.92246 6.07119 9.89786 6.09499 9.87742L8.85508 7.49953L6.09499 5.12259C6.0712 5.10215 6.05225 5.07755 6.03931 5.05028C6.02636 5.02302 6.01969 4.99365 6.01969 4.96398C6.01969 4.93431 6.02636 4.90494 6.03931 4.87768C6.05225 4.85041 6.0712 4.82581 6.09499 4.80537L6.09814 4.80252C6.14705 4.76036 6.21202 4.73684 6.27959 4.73684C6.34716 4.73684 6.41213 4.76036 6.46104 4.80252L9.39206 7.32784C9.41784 7.35005 9.43836 7.37676 9.45238 7.40636C9.4664 7.43595 9.47363 7.46781 9.47363 7.5C9.47363 7.5322 9.4664 7.56406 9.45238 7.59365C9.43836 7.62324 9.41784 7.64995 9.39206 7.67216Z" fill="#E5322D"/>
</g>
</svg>
