<svg width="38" height="38" viewBox="0 0 38 38" fill="none" xmlns="http://www.w3.org/2000/svg">
<g id="Group 10">
<circle id="Ellipse 6" opacity="0.1" cx="19" cy="19" r="19" fill="#E5322D"/>
<path id="Vector" d="M24.6535 13.9711C24.7618 13.8662 24.8482 13.7408 24.9077 13.602C24.9672 13.4633 24.9986 13.314 25 13.163C25.0013 13.012 24.9727 12.8622 24.9158 12.7224C24.8588 12.5826 24.7747 12.4555 24.6683 12.3487C24.5619 12.2418 24.4353 12.1573 24.296 12.1001C24.1567 12.0428 24.0074 12.014 23.8568 12.0152C23.7063 12.0164 23.5575 12.0478 23.4191 12.1073C23.2807 12.1668 23.1556 12.2534 23.0509 12.362L18.5064 16.9193L13.9634 12.362C13.8596 12.2503 13.7344 12.1606 13.5953 12.0985C13.4563 12.0363 13.3061 12.0029 13.1539 12.0002C13.0016 11.9975 12.8504 12.0256 12.7092 12.0828C12.568 12.14 12.4398 12.2251 12.3321 12.3331C12.2244 12.4412 12.1396 12.5698 12.0825 12.7114C12.0255 12.8531 11.9975 13.0048 12.0002 13.1575C12.0029 13.3102 12.0362 13.4608 12.0982 13.6004C12.1601 13.7399 12.2495 13.8654 12.3609 13.9696L16.9009 18.5284L12.3579 23.0857C12.1576 23.3013 12.0485 23.5865 12.0537 23.8811C12.0589 24.1758 12.1779 24.4569 12.3856 24.6653C12.5934 24.8737 12.8737 24.9931 13.1674 24.9983C13.4612 25.0035 13.7454 24.8941 13.9604 24.6932L18.5064 20.1359L23.0494 24.6947C23.2644 24.8956 23.5487 25.005 23.8424 24.9998C24.1362 24.9946 24.4164 24.8753 24.6242 24.6669C24.8319 24.4585 24.9509 24.1773 24.9561 23.8826C24.9613 23.588 24.8522 23.3028 24.652 23.0872L20.112 18.5284L24.6535 13.9711Z" fill="#E5322D"/>
</g>
</svg>
